PathFileType	4	(X/Y/Z)	C:/Users/opensim2020/Desktop/walking_exp_matlab/subject03_walking12_straight_04.trc	
DataRate	CameraRate	NumFrames	NumMarkers	Units	OrigDataRate	OrigDataStartFrame	OrigNumFrames	
100.00	100.00	4	48	mm	100.00	2272	202	
Frame#	Time	LFHD			RFHD			LBHD			RBHD			C7			T10			CLAV			STRN			RBAK			LSHO			LUPA			LELB			LFRM			LWRA			LWRB			LFIN			RSHO			RUPA			RELB			RFRM			RWRA			RWRB			RFIN			LASI			RASI			LPSI			RPSI			LTHI			LKNE			LTIB			LANK			LHEE			LTOE			RTHI			RKNE			RTIB			RANK			RHEE			RTOE			*39			*40			*41			*42			*43			*44			*45			*46			*47			
		X1	Y1	Z1	X2	Y2	Z2	X3	Y3	Z3	X4	Y4	Z4	X5	Y5	Z5	X6	Y6	Z6	X7	Y7	Z7	X8	Y8	Z8	X9	Y9	Z9	X10	Y10	Z10	X11	Y11	Z11	X12	Y12	Z12	X13	Y13	Z13	X14	Y14	Z14	X15	Y15	Z15	X16	Y16	Z16	X17	Y17	Z17	X18	Y18	Z18	X19	Y19	Z19	X20	Y20	Z20	X21	Y21	Z21	X22	Y22	Z22	X23	Y23	Z23	X24	Y24	Z24	X25	Y25	Z25	X26	Y26	Z26	X27	Y27	Z27	X28	Y28	Z28	X29	Y29	Z29	X30	Y30	Z30	X31	Y31	Z31	X32	Y32	Z32	X33	Y33	Z33	X34	Y34	Z34	X35	Y35	Z35	X36	Y36	Z36	X37	Y37	Z37	X38	Y38	Z38	X39	Y39	Z39	X40	Y40	Z40	X41	Y41	Z41	X42	Y42	Z42	X43	Y43	Z43	X44	Y44	Z44	X45	Y45	Z45	X46	Y46	Z46	X47	Y47	Z47	X48	Y48	Z48	

127	1.260	1470.97888	-199.72365	1618.84802	1339.28735	-179.02460	1620.92566	1486.46326	-69.15496	1586.64966	1356.07458	-53.91123	1588.13574	1420.81921	-22.94708	1418.85071	1418.01697	-0.11517	1101.85718	1421.63794	-144.63560	1344.92737	1429.11328	-194.85379	1182.58691	1323.60779	23.02353	1238.91956	1575.90344	-93.42804	1384.29236	1650.39343	-96.82143	1190.08167	1659.67554	-127.46271	1072.90698	1643.05640	-216.27765	985.04663	1593.26819	-299.92578	912.55890	1641.07605	-281.51764	891.58038	1622.85864	-349.79459	848.86462	1261.46667	-101.00281	1367.27478	1188.28015	-104.53339	1143.85962	1176.46814	-116.58250	1031.26648	1171.52869	-123.06040	894.49176	1206.46411	-141.19859	795.62799	1158.77136	-114.57568	794.66138	1169.72485	-125.94473	720.02057	1536.69128	-168.22424	944.09729	1299.74683	-176.96786	950.14545	1482.24084	-7.56754	956.27020	1333.96716	-14.54086	972.15186	1581.94141	-180.06224	639.99225	1558.89746	-240.26266	471.00366	1549.12708	-115.25394	319.10071	1503.06934	9.92135	154.86125	1462.97351	62.48818	148.45708	1476.73523	-92.12577	47.73509	1256.84900	-142.94681	650.88916	1299.15051	-164.62949	474.41516	1290.79016	-111.80508	286.28708	1335.96753	-66.93095	74.70557	1383.49268	-17.11818	43.38150	1356.75183	-204.59145	36.94971																											 
128	1.270	1470.87268	-213.40108	1619.22412	1339.21301	-192.39259	1621.19934	1486.61890	-82.75928	1587.23438	1356.29358	-67.27258	1588.68689	1420.76184	-35.97110	1419.54590	1417.38464	-12.88334	1102.65320	1421.71924	-157.44838	1345.36877	1428.98413	-207.71382	1183.14160	1322.54614	9.77891	1240.20325	1575.93799	-106.01953	1384.77588	1650.05396	-107.53467	1190.26050	1659.11670	-136.27412	1072.20142	1643.16382	-222.08633	980.64600	1594.20728	-303.07950	904.41425	1642.11914	-283.57648	884.55707	1624.08911	-349.71326	838.24347	1261.71277	-114.66793	1368.30811	1188.08899	-121.39516	1145.19641	1176.26672	-135.74037	1032.90967	1171.22095	-145.00877	896.29144	1206.31580	-164.87184	797.79572	1158.50183	-138.50867	796.40131	1168.97705	-152.38638	722.32886	1535.80432	-181.43219	945.47455	1299.09912	-189.29686	950.20831	1482.35315	-20.67732	957.44318	1334.03186	-27.26929	972.86560	1581.31641	-197.29199	642.43323	1556.77380	-260.38852	474.54147	1547.57349	-142.97406	315.73364	1501.63757	-27.99299	143.79311	1461.88989	24.17005	133.60442	1475.10266	-137.68613	44.89989	1257.50281	-150.59560	650.90332	1299.02295	-168.06451	473.75348	1290.92859	-113.50482	286.32623	1336.20703	-67.03249	74.95766	1383.67712	-17.96945	43.40443	1356.79053	-204.76305	36.89628																											 
129	1.280	1470.85352	-226.95361	1619.32153	1339.18762	-205.74741	1621.23120	1486.70630	-96.56659	1587.48242	1356.51770	-80.63071	1588.82678	1420.85339	-49.01256	1419.98364	1416.93066	-25.74550	1103.14453	1421.95227	-170.50905	1345.66687	1428.80920	-220.48547	1183.40393	1321.60803	-3.50025	1241.06946	1575.96875	-118.95168	1384.78906	1649.68420	-118.45197	1190.02966	1658.57336	-145.11411	1071.12195	1643.44397	-227.70531	975.94397	1595.41711	-305.78839	896.03113	1643.46765	-285.28979	877.31744	1625.44800	-349.07718	827.40466	1261.94873	-128.15527	1369.08301	1187.87219	-138.28796	1146.29126	1175.93103	-154.71800	1034.40063	1170.92102	-167.08669	898.07788	1206.17175	-189.13460	800.11932	1158.13965	-162.80637	798.07819	1168.42114	-178.97177	724.66968	1535.32642	-194.68330	946.28516	1298.68567	-201.63411	949.99023	1482.59619	-33.80469	958.09540	1334.07666	-39.98715	973.31146	1580.92810	-214.34541	644.59888	1554.80432	-279.67603	477.70453	1546.16248	-170.60606	312.04306	1500.38672	-67.13302	132.74826	1460.50439	-15.13191	118.85226	1474.02454	-183.45563	42.43571	1257.92029	-158.28745	650.66418	1298.63538	-171.49733	473.27884	1290.93066	-115.14803	286.39481	1336.45923	-67.25637	75.15073	1383.93335	-17.75417	44.22657	1356.65942	-204.83353	36.90475																											 
130	1.290	1470.78882	-240.48289	1619.18213	1339.20044	-218.92473	1621.06689	1487.05420	-109.92859	1587.46179	1356.86951	-93.93462	1588.73657	1420.94995	-62.18113	1420.00208	1416.64551	-38.60623	1103.34607	1422.14148	-183.54704	1345.66956	1428.61523	-233.35286	1183.34351	1320.81018	-16.68419	1241.64502	1576.23303	-131.76944	1384.44385	1649.31274	-129.54832	1189.31946	1658.10840	-153.90222	1069.51929	1643.86670	-233.18919	970.96936	1596.95020	-308.44202	887.26422	1645.12915	-286.66971	870.00928	1627.01392	-347.85550	816.37280	1262.19055	-141.60106	1369.57458	1187.53906	-154.86102	1147.21289	1175.57129	-173.66891	1035.75867	1170.60315	-189.09325	899.73505	1206.06909	-213.18518	802.35339	1157.99719	-187.48309	799.71423	1168.06494	-205.66356	726.76135	1535.01099	-207.97449	946.61945	1298.41321	-213.85837	949.49225	1482.88489	-46.88613	958.39471	1334.24670	-52.61184	973.50189	1580.47681	-231.33354	646.33478	1552.98511	-298.16214	480.38553	1545.09399	-198.38937	308.04965	1499.18262	-107.09471	122.02317	1459.36572	-55.78619	104.50755	1473.66626	-229.51053	40.48363	1258.23169	-165.95544	650.25940	1298.29590	-175.04237	472.56113	1290.99109	-116.90928	286.41287	1336.81555	-67.48478	75.54925	1384.33679	-17.95873	44.85181	1356.91235	-205.15901	36.83582																											 
